<?xml version="1.0" encoding="utf-8"?>
<!-- Generator: Adobe Illustrator 16.0.0, SVG Export Plug-In . SVG Version: 6.00 Build 0)  -->
<!DOCTYPE svg PUBLIC "-//W3C//DTD SVG 1.1//EN" "http://www.w3.org/Graphics/SVG/1.1/DTD/svg11.dtd">
<svg version="1.1" id="Layer_1" xmlns="http://www.w3.org/2000/svg" xmlns:xlink="http://www.w3.org/1999/xlink" x="0px" y="0px"
	 width="512px" height="512px" viewBox="0 0 512 512" enable-background="new 0 0 512 512" xml:space="preserve">
<polygon fill="#A02022" points="47,106.714 91.074,113.823 76.857,66.904 128.041,83.966 128.041,34.204 165.007,58.374 
	172.115,14.299 204.816,41.313 224.721,0.081 256,38.469 278.748,0.081 295.81,42.734 329.932,12.877 339.885,56.952 
	376.851,28.517 376.851,79.7 422.348,56.952 413.816,113.823 457.892,102.449 440.83,142.258 486.327,150.789 460.735,184.912 
	503.389,197.708 470.688,228.986 511.919,250.313 469.266,275.905 504.811,301.497 466.422,319.979 490.593,356.945 
	446.518,356.945 465,403.864 418.082,403.864 430.878,442.252 385.381,428.034 386.803,477.797 348.415,450.783 341.307,497.701 
	304.34,465 287.279,511.919 256,472.109 236.095,511.919 216.19,467.844 180.646,503.389 170.694,453.626 132.306,479.218 
	132.306,433.722 86.809,449.361 98.183,405.286 47,406.708 74.013,364.055 27.095,362.633 55.53,324.245 8.612,311.449 
	39.891,284.436 0.081,256 38.469,236.095 0.081,207.66 48.421,193.442 17.142,152.21 66.904,153.632 "/>
</svg>