<?xml version="1.0" encoding="utf-8"?>
<!-- Generator: Adobe Illustrator 16.0.0, SVG Export Plug-In . SVG Version: 6.00 Build 0)  -->
<!DOCTYPE svg PUBLIC "-//W3C//DTD SVG 1.1//EN" "http://www.w3.org/Graphics/SVG/1.1/DTD/svg11.dtd">
<svg version="1.1" id="Layer_1" xmlns="http://www.w3.org/2000/svg" xmlns:xlink="http://www.w3.org/1999/xlink" x="0px" y="0px"
	 width="512px" height="512px" viewBox="0 0 512 512" enable-background="new 0 0 512 512" xml:space="preserve">
<g>
	<path fill="#EB6324" d="M119.961,296.251l-67.028,6.517c0,0-19.55,0-18.619-21.412l-0.032-107.059c0,0,6.549-22.343,24.237-15.826
		l352.829-32.583c0,0,18.619-2.793,14.896,21.412l0.492,94.957l-263.95,22.343C162.785,264.599,140.442,259.943,119.961,296.251z"/>
	<polygon fill="none" stroke="#E5242B" stroke-width="10" stroke-miterlimit="10" points="9.179,156.608 50.141,125.789 
		74.345,189.191 	"/>
	<path fill="#FBCA0D" d="M119.961,296.251c0,0,11.66-29.83,36.179-31.498l313.857-28.083c0,0,32.583-4.655,42.823,29.79v93.095
		L161.854,394c0,0-43.754-0.931-41.893-37.238V296.251z"/>
	<polygon fill="none" stroke="#E5242B" stroke-width="10" stroke-miterlimit="10" points="433.69,259.013 459.757,196.639 
		496.995,221.775 	"/>
</g>
</svg>